<?xml version="1.0" encoding="utf-8"?>
<!-- Generator: Adobe Illustrator 28.0.0, SVG Export Plug-In . SVG Version: 6.00 Build 0)  -->
<svg version="1.1" id="Layer_1" xmlns="http://www.w3.org/2000/svg" xmlns:xlink="http://www.w3.org/1999/xlink" x="0px" y="0px"
	 viewBox="0 0 500 174.5" style="enable-background:new 0 0 500 174.5;" xml:space="preserve">
<style type="text/css">
	.st0{clip-path:url(#SVGID_00000086682400083239372830000001319829024468023995_);}
	.st1{clip-path:url(#SVGID_00000166638811812249125620000015273622083270539706_);}
	.st2{clip-path:url(#SVGID_00000035530433190849355660000001876634868613530037_);}
	.st3{fill:#8FBF91;}
	.st4{clip-path:url(#SVGID_00000147206810327947679640000005662307260590504859_);}
	.st5{clip-path:url(#SVGID_00000177479439869495943040000009889307684680979119_);}
	.st6{clip-path:url(#SVGID_00000152983336876913479360000003477479780238398084_);}
	.st7{clip-path:url(#SVGID_00000055706375402469379700000000753393747181304473_);}
	.st8{clip-path:url(#SVGID_00000016797350439993745900000010032384617583322521_);}
	.st9{clip-path:url(#SVGID_00000054261235257786554620000014341897433173315740_);}
	.st10{clip-path:url(#SVGID_00000003795104698860396350000005012133773756019596_);}
	.st11{clip-path:url(#SVGID_00000036223709023759237020000010584993616438379177_);}
	.st12{clip-path:url(#SVGID_00000139260797731069369190000009064747790013457806_);}
	.st13{clip-path:url(#SVGID_00000130636581659699500200000002880449509042534790_);}
	.st14{clip-path:url(#SVGID_00000091007316263652168730000007003139425420956048_);}
	.st15{clip-path:url(#SVGID_00000182500953880733993450000011286852154171817374_);}
	.st16{fill:#FF8735;}
</style>
<g>
	<defs>
		<rect id="SVGID_1_" x="226.7" y="10.2" width="17.3" height="29.3"/>
	</defs>
	<clipPath id="SVGID_00000012453300247215020270000018100749728218518178_">
		<use xlink:href="#SVGID_1_"  style="overflow:visible;"/>
	</clipPath>
	<g style="clip-path:url(#SVGID_00000012453300247215020270000018100749728218518178_);">
		<g>
			<defs>
				
					<rect id="SVGID_00000101806841090038206570000017962647980007804095_" x="210" y="6.6" transform="matrix(0.8964 -0.4433 0.4433 0.8964 6.8567 112.4922)" width="68" height="70"/>
			</defs>
			<clipPath id="SVGID_00000052092212747532408790000007952646835972352147_">
				<use xlink:href="#SVGID_00000101806841090038206570000017962647980007804095_"  style="overflow:visible;"/>
			</clipPath>
			<g style="clip-path:url(#SVGID_00000052092212747532408790000007952646835972352147_);">
				<g>
					<defs>
						
							<rect id="SVGID_00000139256085148745137390000009378201991833313968_" x="210" y="6.6" transform="matrix(0.8964 -0.4433 0.4433 0.8964 6.8567 112.4922)" width="68" height="70"/>
					</defs>
					<clipPath id="SVGID_00000036973970825214782380000009513956085320330677_">
						<use xlink:href="#SVGID_00000139256085148745137390000009378201991833313968_"  style="overflow:visible;"/>
					</clipPath>
					<g style="clip-path:url(#SVGID_00000036973970825214782380000009513956085320330677_);">
						<path class="st3" d="M231.6,25.7c0.9,1.9,1.9,3.7,2.9,5.6C233.3,29.6,232.3,27.7,231.6,25.7z M240.9,25.5
							c-2.9-5.6-7-10.4-11.7-14.6c-0.8-0.7-2.2,0.1-2.2,1.1c0.2,8.4,1.9,22.5,11.5,25.3c0.5,0.4,1.1,0.8,1.7,0.9
							c0.7,0.2,1.6,0,2-0.7C244.4,33.6,243,29.4,240.9,25.5"/>
					</g>
				</g>
			</g>
		</g>
	</g>
</g>
<g>
	<defs>
		<rect id="SVGID_00000016793507387970242700000018118510905885860998_" x="245.3" y="14.2" width="14.7" height="34.7"/>
	</defs>
	<clipPath id="SVGID_00000011729159960333680290000018006053574847726736_">
		<use xlink:href="#SVGID_00000016793507387970242700000018118510905885860998_"  style="overflow:visible;"/>
	</clipPath>
	<g style="clip-path:url(#SVGID_00000011729159960333680290000018006053574847726736_);">
		<g>
			<defs>
				
					<rect id="SVGID_00000142174612688639476970000009686059505185530796_" x="210" y="6.6" transform="matrix(0.8964 -0.4433 0.4433 0.8964 6.8567 112.4922)" width="68" height="70"/>
			</defs>
			<clipPath id="SVGID_00000181792278242940730080000011950938459353229481_">
				<use xlink:href="#SVGID_00000142174612688639476970000009686059505185530796_"  style="overflow:visible;"/>
			</clipPath>
			<g style="clip-path:url(#SVGID_00000181792278242940730080000011950938459353229481_);">
				<g>
					<defs>
						
							<rect id="SVGID_00000164496327779100518720000002128365072614070656_" x="210" y="6.6" transform="matrix(0.8964 -0.4433 0.4433 0.8964 6.8567 112.4922)" width="68" height="70"/>
					</defs>
					<clipPath id="SVGID_00000057114573247912531190000001979667408958154633_">
						<use xlink:href="#SVGID_00000164496327779100518720000002128365072614070656_"  style="overflow:visible;"/>
					</clipPath>
					<g style="clip-path:url(#SVGID_00000057114573247912531190000001979667408958154633_);">
						<path class="st3" d="M249.8,31.6c-0.4,1.9-0.8,3.8-1.1,5.7C248.8,35.4,249.2,33.4,249.8,31.6z M252,43.5
							c2.6-4.7,6.3-11.7,6.7-12.6c1.8-4.7,1.1-11.1-0.9-15.7c-0.5-1.1-1.8-0.9-2.4-0.2c-6.8,8.3-10.7,18.7-8.5,29.5
							c0.3,1.5,1.1,3.4,2.6,3.4C249.6,47.9,250.6,46,252,43.5"/>
					</g>
				</g>
			</g>
		</g>
	</g>
</g>
<g>
	<defs>
		<rect id="SVGID_00000060744534661110898790000014242247195383734659_" x="220" y="60.8" width="29.3" height="12"/>
	</defs>
	<clipPath id="SVGID_00000059996590724813876950000005108557285957871009_">
		<use xlink:href="#SVGID_00000060744534661110898790000014242247195383734659_"  style="overflow:visible;"/>
	</clipPath>
	<g style="clip-path:url(#SVGID_00000059996590724813876950000005108557285957871009_);">
		<g>
			<defs>
				
					<rect id="SVGID_00000094594710857424697090000010689015808801020346_" x="210" y="6.6" transform="matrix(0.8964 -0.4433 0.4433 0.8964 6.8567 112.4922)" width="68" height="70"/>
			</defs>
			<clipPath id="SVGID_00000152984958835913423680000009764465256013711233_">
				<use xlink:href="#SVGID_00000094594710857424697090000010689015808801020346_"  style="overflow:visible;"/>
			</clipPath>
			<g style="clip-path:url(#SVGID_00000152984958835913423680000009764465256013711233_);">
				<g>
					<defs>
						
							<rect id="SVGID_00000069368493165592674910000005611485649648027031_" x="210" y="6.6" transform="matrix(0.8964 -0.4433 0.4433 0.8964 6.8567 112.4922)" width="68" height="70"/>
					</defs>
					<clipPath id="SVGID_00000168088186802483966240000015213226181882693012_">
						<use xlink:href="#SVGID_00000069368493165592674910000005611485649648027031_"  style="overflow:visible;"/>
					</clipPath>
					<g style="clip-path:url(#SVGID_00000168088186802483966240000015213226181882693012_);">
						<path class="st3" d="M238.7,69.3c1.9-0.3,3.7-0.7,5.6-1.2C242.5,68.7,240.5,69.1,238.7,69.3z M248.2,64.6c0,0,0,0.1-0.1,0.1
							c-9.2-5.2-20.4-4.4-27.7,3.5c-0.8,0.9-0.1,2,0.9,2.3c5.7,1.7,11.7,2.2,17.5,1.1c3-0.6,6.8-1.3,8.9-3.6c1.4-0.1,2-1.6,1.3-2.7
							c0-0.2,0.1-0.3,0.1-0.5C249.1,64.4,248.4,64.2,248.2,64.6"/>
					</g>
				</g>
			</g>
		</g>
	</g>
</g>
<g>
	<defs>
		<rect id="SVGID_00000049196965389323107190000017907512940472076160_" x="256" y="31.5" width="22.7" height="41.3"/>
	</defs>
	<clipPath id="SVGID_00000051357164527863202060000014715944105473061291_">
		<use xlink:href="#SVGID_00000049196965389323107190000017907512940472076160_"  style="overflow:visible;"/>
	</clipPath>
	<g style="clip-path:url(#SVGID_00000051357164527863202060000014715944105473061291_);">
		<g>
			<defs>
				
					<rect id="SVGID_00000079451278510700487770000010700035296445365945_" x="210" y="6.6" transform="matrix(0.8964 -0.4433 0.4433 0.8964 6.8567 112.4922)" width="68" height="70"/>
			</defs>
			<clipPath id="SVGID_00000088818513136504940060000003478918636338295424_">
				<use xlink:href="#SVGID_00000079451278510700487770000010700035296445365945_"  style="overflow:visible;"/>
			</clipPath>
			<g style="clip-path:url(#SVGID_00000088818513136504940060000003478918636338295424_);">
				<g>
					<defs>
						
							<rect id="SVGID_00000125574140224679077700000012208605961581500562_" x="210" y="6.6" transform="matrix(0.8964 -0.4433 0.4433 0.8964 6.8567 112.4922)" width="68" height="70"/>
					</defs>
					<clipPath id="SVGID_00000166651525643993724680000013157616115613361830_">
						<use xlink:href="#SVGID_00000125574140224679077700000012208605961581500562_"  style="overflow:visible;"/>
					</clipPath>
					<g style="clip-path:url(#SVGID_00000166651525643993724680000013157616115613361830_);">
						<path class="st3" d="M260.5,70c0.8-7.3,6.2-12.6,10.2-18.2c2-2.8,5.3-7.4,5.3-11.5c0.6-2.2,1.1-4.5,1.5-6.7
							c0.1-0.9-0.9-1.8-1.7-1.5c-3.6,1.1-6.5,3-8.8,5.5c-9.7,7.5-10.5,20.4-10.5,32.3C256.5,72.3,260.2,72.6,260.5,70"/>
					</g>
				</g>
			</g>
		</g>
	</g>
</g>
<g>
	<defs>
		<rect id="SVGID_00000053524839484660234280000006500602951068768649_" x="220" y="43.5" width="25.3" height="12"/>
	</defs>
	<clipPath id="SVGID_00000121260495419450554300000000225053021286919604_">
		<use xlink:href="#SVGID_00000053524839484660234280000006500602951068768649_"  style="overflow:visible;"/>
	</clipPath>
	<g style="clip-path:url(#SVGID_00000121260495419450554300000000225053021286919604_);">
		<g>
			<defs>
				
					<rect id="SVGID_00000113320772202670567360000009057074611972900797_" x="210" y="6.6" transform="matrix(0.8964 -0.4433 0.4433 0.8964 6.8567 112.4922)" width="68" height="70"/>
			</defs>
			<clipPath id="SVGID_00000034048259462871693350000005666935237829772418_">
				<use xlink:href="#SVGID_00000113320772202670567360000009057074611972900797_"  style="overflow:visible;"/>
			</clipPath>
			<g style="clip-path:url(#SVGID_00000034048259462871693350000005666935237829772418_);">
				<g>
					<defs>
						
							<rect id="SVGID_00000067939245227544944440000011762921471892390042_" x="210" y="6.6" transform="matrix(0.8964 -0.4433 0.4433 0.8964 6.8567 112.4922)" width="68" height="70"/>
					</defs>
					<clipPath id="SVGID_00000096738298998335885650000003174616723899018922_">
						<use xlink:href="#SVGID_00000067939245227544944440000011762921471892390042_"  style="overflow:visible;"/>
					</clipPath>
					<g style="clip-path:url(#SVGID_00000096738298998335885650000003174616723899018922_);">
						<path class="st3" d="M245,52c0.7-3.2-4.1-6.1-6.5-7.1c-0.7-0.3-1.5-0.5-2.2-0.7c-1.1-0.4-2.4-0.4-3.8-0.4
							c-1.9,0-3.8,0.4-5.6,1c-2.1,0.5-3.9,1.2-5.3,1.5c-1.1,0.3-1.7,1.9-0.5,2.7c4.1,2.5,8.6,4.3,13.4,4.9
							C237,54.4,244.3,55.6,245,52"/>
					</g>
				</g>
			</g>
		</g>
	</g>
</g>
<g>
	<g transform="translate(8.66002, 225.347841)">
		<g>
			<path class="st16" d="M41.1-144.4h-8.9l5.5-17.5l-13.1,0.5l-5.2,17h-8.6c-0.2,0-0.3,0.3-0.5,1c-0.2,0.7-0.2,1-0.1,1h8.6L8-108
				c-1.5,4.9-1.4,8.7,0.2,11.5c1.6,2.8,4.3,4.2,8.1,4.2c3,0,6-1,9-2.9c3-1.9,5.6-5,7.6-9.1l-1.8-0.7c-1.7,3.2-3.4,5.4-5.1,6.6
				c-1.7,1.2-3.4,1.9-5.2,1.9c-1.1,0-1.8-0.4-2.2-1.1c-0.4-0.7-0.4-1.6-0.1-2.7l13.2-42h8.9c0.2,0,0.3-0.3,0.5-1
				C41.2-144.1,41.2-144.4,41.1-144.4z"/>
		</g>
	</g>
</g>
<g>
	<g transform="translate(34.776899, 225.347841)">
		<g>
			<path class="st16" d="M70.9-144.9l-12.8,1.3l-2.2,5.1c-0.4-2-1.4-3.6-3.1-4.6c-1.7-1-3.5-1.5-5.6-1.5c-4.6,0-8.8,1-12.8,3.1
				c-4,2.1-7.4,4.7-10.4,8c-2.9,3.2-5.3,6.8-7,10.7c-1.7,3.9-2.5,7.8-2.5,11.6c0,2.4,0.3,4.7,0.8,6.9c0.6,2.2,1.4,4.2,2.7,6
				c1.2,1.8,2.8,3.2,4.8,4.3c2,1.1,4.4,1.6,7.2,1.6c6.6,0,12-4.2,16.1-12.6c-1.1,3.6-0.8,6.6,0.9,9c1.7,2.4,4.3,3.6,7.8,3.6
				c1.4,0,2.9-0.3,4.4-0.8c1.5-0.5,3-1.3,4.5-2.4c1.5-1.1,2.8-2.4,4.1-3.9c1.3-1.5,2.4-3.2,3.4-5l-1.8-0.7c-1.5,2.5-3.1,4.5-4.9,6.1
				c-1.8,1.5-3.6,2.3-5.5,2.3c-1.1,0-1.8-0.4-2.2-1.1c-0.3-0.8-0.4-1.6-0.2-2.4L70.9-144.9z M54.8-135.2l-6.5,20.5
				c-2.6,6.5-5.2,11.4-7.8,14.8c-2.6,3.4-5.4,5.1-8.4,5.1c-1.7,0-3.1-0.6-4.1-1.7c-1-1.1-1.5-3.2-1.5-6.3c0-2.4,0.3-5.5,1-9.1
				c0.7-3.6,1.6-7.3,2.9-10.9c1.3-3.7,2.8-7.1,4.5-10.3c1.8-3.2,3.7-5.6,5.9-7.3c1.4-1,2.6-1.7,3.5-2.1c0.9-0.4,1.9-0.5,2.8-0.5
				c2.3,0,4.1,0.7,5.5,2.2S54.8-137.5,54.8-135.2z"/>
		</g>
	</g>
</g>
<g>
	<g transform="translate(81.610222, 225.347841)">
		<g>
			<path class="st16" d="M69-134.6c0-1.5-0.4-2.9-1.1-4.1c-0.8-1.3-1.7-2.3-3-3.2c-1.2-0.9-2.6-1.5-4.3-2.1
				c-1.7-0.5-3.4-0.8-5.2-0.8c-2.5,0-4.9,0.5-7,1.4c-2.2,0.9-4.1,2.2-5.7,3.8c-1.7,1.6-3,3.3-3.9,5.3c-0.9,2-1.4,3.9-1.4,5.9
				c0,2,0.4,3.8,1.1,5.3c0.8,1.5,1.7,2.8,2.8,4.1c1.1,1.2,2.3,2.4,3.6,3.4c1.3,1.1,2.5,2.2,3.6,3.4c1.1,1.2,2,2.5,2.8,4
				c0.8,1.5,1.1,3.2,1.1,5.1c0,2.6-0.7,4.7-2.2,6.4c-1.5,1.7-3.9,2.5-7.2,2.5c-3,0-5.1-0.4-6.3-1.3c-1.2-0.9-1.8-2-1.8-3.5
				c0-0.8,0.2-1.4,0.5-1.8c0.4-0.4,0.8-0.8,1.2-1.2c0.5-0.4,0.9-0.9,1.2-1.5c0.4-0.6,0.5-1.6,0.5-3c0-1.1-0.4-2.3-1.3-3.5
				c-0.9-1.2-2.2-1.8-4.1-1.8c-1.8,0-3.3,0.8-4.4,2.3c-1.1,1.5-1.7,3.3-1.7,5.4c0,1.6,0.4,3.1,1.2,4.6c0.8,1.4,1.9,2.7,3.3,3.8
				c1.4,1.1,3.1,1.9,5.1,2.5c2,0.6,4.1,1,6.5,1c3.2,0,6.1-0.4,8.5-1.3c2.5-0.9,4.6-2,6.3-3.5c1.7-1.5,3-3.1,3.9-5
				c0.9-1.9,1.3-3.8,1.3-5.9c0-2.4-0.4-4.4-1.2-6.2c-0.8-1.8-1.8-3.4-2.9-4.8c-1.2-1.4-2.5-2.8-3.9-4c-1.4-1.3-2.7-2.5-3.9-3.7
				c-1.2-1.2-2.2-2.5-3-3.8c-0.8-1.3-1.2-2.9-1.2-4.6c0-2.4,0.7-4.3,2-5.7c1.3-1.3,3.4-2,6-2c3.8,0,5.7,1.2,5.7,3.7
				c0,0.6-0.1,1.1-0.4,1.5c-0.2,0.4-0.5,0.8-0.8,1.2c-0.3,0.4-0.5,0.8-0.8,1.4c-0.2,0.5-0.4,1.1-0.4,1.8c0,1.3,0.4,2.3,1.2,3.2
				c0.8,0.9,2.1,1.4,3.9,1.4c1.7,0,3-0.5,4-1.5C68.5-131,69-132.5,69-134.6z"/>
		</g>
	</g>
</g>
<g>
	<g transform="translate(114.632578, 225.347841)">
		<g>
			<path class="st16" d="M76.5-144.4h-8.9l5.5-17.5L60-161.4l-5.2,17h-8.6c-0.2,0-0.3,0.3-0.5,1c-0.2,0.7-0.2,1-0.1,1h8.6l-11,34.4
				c-1.5,4.9-1.4,8.7,0.2,11.5c1.6,2.8,4.3,4.2,8.1,4.2c3,0,6-1,9-2.9c3-1.9,5.6-5,7.6-9.1l-1.8-0.7c-1.7,3.2-3.4,5.4-5.1,6.6
				c-1.7,1.2-3.4,1.9-5.2,1.9c-1.1,0-1.8-0.4-2.2-1.1c-0.4-0.7-0.4-1.6-0.1-2.7l13.2-42h8.9c0.2,0,0.3-0.3,0.5-1
				C76.5-144.1,76.5-144.4,76.5-144.4z"/>
		</g>
	</g>
</g>
<g>
	<g transform="translate(140.749457, 225.347841)">
		<g>
			<path class="st16" d="M105.8-141.4c0-0.9-0.3-1.7-0.8-2.4c-0.5-0.6-1.4-1-2.8-1c-3.7,0-7.4,3-10.9,8.9
				c-3.6,5.9-7.8,14.7-12.6,26.4l-3.3-15.2c-1.3-6.1-2.9-11-4.7-14.6c-1.8-3.6-4.4-5.4-7.9-5.4c-2.9,0-5.6,1-7.9,3
				c-2.4,2-4.5,4.8-6.4,8.3l1.3,1.2c1.1-1.8,2.1-3.1,3-3.9c0.9-0.8,1.9-1.2,2.9-1.2c0.8,0,1.6,0.2,2.4,0.6c0.8,0.4,1.6,1.3,2.3,2.6
				c0.8,1.3,1.5,3.2,2.2,5.7c0.8,2.5,1.5,5.8,2.2,9.9l5.2,29.9c-2.1,4.9-4.1,9.2-5.9,13c-1.8,3.8-3.7,7-5.6,9.6
				c-1.9,2.6-4,4.6-6.1,5.9c-2.2,1.3-4.6,2-7.2,2c-1.3,0-2.3-0.3-3-1c-0.8-0.6-1.1-1.6-1.1-3.1c0-1,0.4-2.2,1.3-3.4
				c0.9-1.2,1.3-2.6,1.3-4.1c0-1.3-0.4-2.5-1.3-3.5c-0.9-1-2.3-1.5-4.2-1.5c-1.8,0-3.3,0.7-4.6,2.1c-1.3,1.4-1.9,3.2-1.9,5.5
				c0,1.7,0.4,3.1,1.1,4.5c0.7,1.3,1.7,2.5,2.9,3.4c1.2,0.9,2.6,1.7,4.2,2.2c1.6,0.6,3.2,0.8,4.9,0.8c3.4,0,6.4-0.8,9-2.5
				c2.6-1.7,5.1-4.2,7.5-7.5c2.4-3.3,4.7-7.5,6.9-12.5c2.2-5,4.8-10.8,7.5-17.4c3.2-7.9,5.9-14.4,8.1-19.2c2.2-4.9,4.2-8.8,6-11.6
				c1.8-2.9,3.6-5,5.4-6.3c1.8-1.3,4-2.4,6.6-3.2c1.1-0.5,2.1-1,2.9-1.6C105.4-139,105.8-140,105.8-141.4z"/>
		</g>
	</g>
</g>
<g>
	<g transform="translate(181.474081, 225.347841)">
	</g>
</g>
<g>
	<g transform="translate(199.180439, 225.347841)">
		<g>
			<path class="st16" d="M121.4-127.4c0-2.7-0.5-5.1-1.4-7.2c-0.9-2.2-2.1-4-3.7-5.5c-1.5-1.5-3.3-2.6-5.2-3.4
				c-1.9-0.8-3.9-1.2-6-1.2c-3,0-5.8,0.9-8.4,2.7c-2.6,1.8-4.7,4.3-6.3,7.5l14.3-45.6c-0.1-0.1-0.1-0.1-0.1-0.2
				c0-0.1-0.1-0.1-0.2-0.1l-19.7,0.4c-0.2,0-0.3,0.3-0.6,1c-0.2,0.6-0.3,0.9-0.1,0.9h6.5c0.5,0,0.7,0.2,0.6,0.5l-19.6,62.2
				c-2.4,7.6-2.4,13.4-0.2,17.3c2.2,3.9,7.5,5.8,15.9,5.8c4.1,0,8.2-1,12.3-2.9c4.1-1.9,7.8-4.5,11-7.7c3.3-3.2,5.9-6.9,7.9-11.1
				C120.4-118.3,121.4-122.7,121.4-127.4z M109.7-133.4c0,2-0.3,4.5-1,7.5c-0.7,3-1.5,6.1-2.5,9.3c-1,3.2-2.1,6.2-3.2,8.9
				c-1.1,2.8-2.2,4.8-3.2,6.2c-2,2.8-4,4.8-6,5.8c-1.9,1-4.1,1.5-6.6,1.5c-2.7,0-4.6-0.9-5.8-2.7c-1.2-1.8-1.4-4.5-0.4-7.9l6.6-20.2
				c2.3-6.1,4.8-10.5,7.4-13.2c2.6-2.7,5.5-4,8.5-4c2.5,0,4.2,0.7,5.1,2C109.3-138.9,109.7-136.6,109.7-133.4z"/>
		</g>
	</g>
</g>
<g>
	<g transform="translate(243.800455, 225.347841)">
		<g>
			<path class="st16" d="M116.1-166.6c0-2-0.7-3.8-2-5.1c-1.3-1.4-2.9-2.1-4.8-2.1c-2.1,0-3.8,0.7-5.1,2.1c-1.3,1.4-2,3.1-2,5.1
				c0,1.8,0.7,3.4,2,4.7c1.3,1.3,3,2,5.1,2c1.9,0,3.5-0.7,4.8-2C115.4-163.2,116.1-164.8,116.1-166.6z M113.4-104.4l-1.6-0.7
				c-1.7,3.2-3.4,5.4-5.1,6.6c-1.7,1.2-3.4,1.9-5.2,1.9c-1.3,0-2.3-0.4-2.8-1.3c-0.5-0.9-0.8-2-0.8-3.3c0-1.9,0.6-4.2,1.8-6.9
				c1.2-2.7,2.5-5.6,4-8.8c1.4-3.1,2.7-6.3,3.9-9.6c1.2-3.3,1.8-6.4,1.8-9.3c0-2.4-0.8-4.5-2.3-6.4c-1.5-1.8-3.8-2.7-6.9-2.7
				c-3.1,0-5.9,0.9-8.6,2.8c-2.7,1.8-4.8,4.5-6.4,7.9l1.8,0.7c1.1-2.3,2.4-4,3.8-5.3c1.4-1.3,2.6-1.9,3.7-1.9c1.1,0,1.9,0.3,2.4,0.8
				c0.5,0.6,0.8,1.6,0.8,3.1c0,2.4-0.6,5-1.8,8c-1.2,3-2.5,6-4,9.1c-1.5,3.1-2.8,6.2-4,9.3c-1.2,3.1-1.8,5.9-1.8,8.5
				c0,2.7,0.9,4.9,2.6,6.7c1.7,1.8,4.3,2.6,7.6,2.6c1.6,0,3.2-0.3,4.8-0.8c1.6-0.5,3.2-1.3,4.6-2.4c1.5-1,2.9-2.3,4.2-3.8
				C111.3-100.8,112.4-102.5,113.4-104.4z"/>
		</g>
	</g>
</g>
<g>
	<g transform="translate(269.563207, 225.347841)">
		<g>
			<path class="st16" d="M128.1-144.4h-8.9l5.5-17.5l-13.1,0.5l-5.2,17h-8.6c-0.2,0-0.3,0.3-0.5,1c-0.2,0.7-0.2,1-0.1,1h8.6
				l-11,34.4c-1.5,4.9-1.4,8.7,0.2,11.5c1.6,2.8,4.3,4.2,8.1,4.2c3,0,6-1,9-2.9c3-1.9,5.6-5,7.6-9.1l-1.8-0.7
				c-1.7,3.2-3.4,5.4-5.1,6.6c-1.7,1.2-3.4,1.9-5.2,1.9c-1.1,0-1.8-0.4-2.2-1.1c-0.4-0.7-0.4-1.6-0.1-2.7l13.2-42h8.9
				c0.2,0,0.3-0.3,0.5-1C128.1-144.1,128.2-144.4,128.1-144.4z"/>
		</g>
	</g>
</g>
<g>
	<g transform="translate(295.680086, 225.347841)">
		<g>
			<path class="st16" d="M146.5-133.9c0-1.4-0.3-2.8-1-4.1c-0.6-1.3-1.6-2.4-2.9-3.4c-1.3-1-2.9-1.8-4.8-2.4c-1.9-0.6-4.1-1-6.5-1
				c-3.9,0-7.7,0.9-11.3,2.7c-3.6,1.8-6.8,4.2-9.5,7.2c-2.8,3-5,6.5-6.6,10.5c-1.7,3.9-2.5,8-2.5,12.3c0,2.9,0.4,5.6,1.4,8
				c0.9,2.4,2.2,4.5,3.8,6.3c1.7,1.7,3.6,3.1,5.8,4c2.2,0.9,4.7,1.4,7.4,1.4c4,0,7.6-0.8,10.6-2.5c3.1-1.7,6-4.2,8.7-7.5l-1.1-1.3
				c-1.3,1.3-2.5,2.6-3.8,3.8c-1.2,1.2-2.6,2.2-4,3.1c-1.4,0.9-3,1.5-4.7,2c-1.7,0.5-3.6,0.7-5.7,0.7c-2.8,0-4.6-0.8-5.7-2.4
				c-1-1.6-1.5-3.9-1.5-6.8c0-1.9,0.3-4.2,0.8-7c0.6-2.8,1.3-5.5,2.1-8.3h3.2c3.9,0,7.5-0.4,10.8-1.1c3.3-0.7,6.3-1.7,8.7-3.1
				c2.5-1.3,4.4-3,5.9-4.9C145.8-129.4,146.5-131.5,146.5-133.9z M135.7-136.5c0,2-0.2,3.9-0.6,5.8c-0.4,1.9-1.3,3.6-2.5,5.1
				c-1.3,1.5-3,2.8-5.3,3.7c-2.3,0.9-5.2,1.4-8.9,1.4h-2.2c0.9-3.1,1.7-6,2.6-8.7c0.9-2.7,1.9-5.1,3-7.1c1.2-2,2.4-3.6,3.9-4.8
				c1.5-1.2,3.2-1.8,5.4-1.8c1.6,0,2.8,0.5,3.5,1.4C135.4-140.5,135.7-138.8,135.7-136.5z"/>
		</g>
	</g>
</g>
<g>
	<g transform="translate(333.306086, 225.347841)">
		<g>
			<path class="st16" d="M152.9-134.6c0-1.5-0.4-2.9-1.1-4.1c-0.8-1.3-1.7-2.3-3-3.2c-1.2-0.9-2.6-1.5-4.3-2.1
				c-1.7-0.5-3.4-0.8-5.2-0.8c-2.5,0-4.9,0.5-7,1.4c-2.2,0.9-4.1,2.2-5.7,3.8c-1.7,1.6-3,3.3-3.9,5.3c-0.9,2-1.4,3.9-1.4,5.9
				c0,2,0.4,3.8,1.1,5.3c0.8,1.5,1.7,2.8,2.8,4.1c1.1,1.2,2.3,2.4,3.6,3.4c1.3,1.1,2.5,2.2,3.6,3.4c1.1,1.2,2,2.5,2.8,4
				c0.8,1.5,1.1,3.2,1.1,5.1c0,2.6-0.7,4.7-2.2,6.4c-1.5,1.7-3.9,2.5-7.2,2.5c-3,0-5.1-0.4-6.3-1.3c-1.2-0.9-1.8-2-1.8-3.5
				c0-0.8,0.2-1.4,0.5-1.8c0.4-0.4,0.8-0.8,1.2-1.2c0.5-0.4,0.9-0.9,1.2-1.5c0.4-0.6,0.5-1.6,0.5-3c0-1.1-0.4-2.3-1.3-3.5
				c-0.9-1.2-2.2-1.8-4.1-1.8c-1.8,0-3.3,0.8-4.4,2.3c-1.1,1.5-1.7,3.3-1.7,5.4c0,1.6,0.4,3.1,1.2,4.6c0.8,1.4,1.9,2.7,3.3,3.8
				c1.4,1.1,3.1,1.9,5.1,2.5c2,0.6,4.1,1,6.5,1c3.2,0,6.1-0.4,8.5-1.3c2.5-0.9,4.6-2,6.3-3.5c1.7-1.5,3-3.1,3.9-5
				c0.9-1.9,1.3-3.8,1.3-5.9c0-2.4-0.4-4.4-1.2-6.2c-0.8-1.8-1.8-3.4-2.9-4.8c-1.2-1.4-2.5-2.8-3.9-4c-1.4-1.3-2.7-2.5-3.9-3.7
				c-1.2-1.2-2.2-2.5-3-3.8c-0.8-1.3-1.2-2.9-1.2-4.6c0-2.4,0.7-4.3,2-5.7c1.3-1.3,3.4-2,6-2c3.8,0,5.7,1.2,5.7,3.7
				c0,0.6-0.1,1.1-0.4,1.5c-0.2,0.4-0.5,0.8-0.8,1.2c-0.3,0.4-0.5,0.8-0.8,1.4c-0.2,0.5-0.4,1.1-0.4,1.8c0,1.3,0.4,2.3,1.2,3.2
				c0.8,0.9,2.1,1.4,3.9,1.4c1.7,0,3-0.5,4-1.5C152.4-131,152.9-132.5,152.9-134.6z"/>
		</g>
	</g>
</g>
</svg>
