<svg xmlns="http://www.w3.org/2000/svg" xmlns:xlink="http://www.w3.org/1999/xlink" width="500" zoomAndPan="magnify" viewBox="0 0 375 374.999991" height="500" preserveAspectRatio="xMidYMid meet" version="1.0"><defs><g/><clipPath id="e7ed7c739b"><path d="M 170 134 L 183 134 L 183 156 L 170 156 Z M 170 134 " clip-rule="nonzero"/></clipPath><clipPath id="f69b4966b0"><path d="M 148.527344 145.335938 L 194.242188 122.726562 L 217.515625 169.785156 L 171.804688 192.394531 Z M 148.527344 145.335938 " clip-rule="nonzero"/></clipPath><clipPath id="c8e62f9522"><path d="M 148.527344 145.335938 L 194.242188 122.726562 L 217.515625 169.785156 L 171.804688 192.394531 Z M 148.527344 145.335938 " clip-rule="nonzero"/></clipPath><clipPath id="44abd31ec5"><path d="M 184 137 L 195 137 L 195 163 L 184 163 Z M 184 137 " clip-rule="nonzero"/></clipPath><clipPath id="036464ce60"><path d="M 148.527344 145.335938 L 194.242188 122.726562 L 217.515625 169.785156 L 171.804688 192.394531 Z M 148.527344 145.335938 " clip-rule="nonzero"/></clipPath><clipPath id="69b8eeb355"><path d="M 148.527344 145.335938 L 194.242188 122.726562 L 217.515625 169.785156 L 171.804688 192.394531 Z M 148.527344 145.335938 " clip-rule="nonzero"/></clipPath><clipPath id="44fd1fed13"><path d="M 165 172 L 187 172 L 187 181 L 165 181 Z M 165 172 " clip-rule="nonzero"/></clipPath><clipPath id="3dddb90a6b"><path d="M 148.527344 145.335938 L 194.242188 122.726562 L 217.515625 169.785156 L 171.804688 192.394531 Z M 148.527344 145.335938 " clip-rule="nonzero"/></clipPath><clipPath id="f76344f862"><path d="M 148.527344 145.335938 L 194.242188 122.726562 L 217.515625 169.785156 L 171.804688 192.394531 Z M 148.527344 145.335938 " clip-rule="nonzero"/></clipPath><clipPath id="5326b055b7"><path d="M 192 150 L 209 150 L 209 181 L 192 181 Z M 192 150 " clip-rule="nonzero"/></clipPath><clipPath id="5c0fc675e2"><path d="M 148.527344 145.335938 L 194.242188 122.726562 L 217.515625 169.785156 L 171.804688 192.394531 Z M 148.527344 145.335938 " clip-rule="nonzero"/></clipPath><clipPath id="cf800c8375"><path d="M 148.527344 145.335938 L 194.242188 122.726562 L 217.515625 169.785156 L 171.804688 192.394531 Z M 148.527344 145.335938 " clip-rule="nonzero"/></clipPath><clipPath id="0cf7b766e9"><path d="M 165 159 L 184 159 L 184 168 L 165 168 Z M 165 159 " clip-rule="nonzero"/></clipPath><clipPath id="74f12225a9"><path d="M 148.527344 145.335938 L 194.242188 122.726562 L 217.515625 169.785156 L 171.804688 192.394531 Z M 148.527344 145.335938 " clip-rule="nonzero"/></clipPath><clipPath id="719a2ae7b8"><path d="M 148.527344 145.335938 L 194.242188 122.726562 L 217.515625 169.785156 L 171.804688 192.394531 Z M 148.527344 145.335938 " clip-rule="nonzero"/></clipPath></defs><g clip-path="url(#e7ed7c739b)"><g clip-path="url(#f69b4966b0)"><g clip-path="url(#c8e62f9522)"><path fill="#8fbf91" d="M 173.730469 145.65625 C 174.398438 147.074219 175.136719 148.460938 175.921875 149.820312 C 174.957031 148.566406 174.246094 147.164062 173.730469 145.65625 Z M 180.695312 145.535156 C 178.492188 141.335938 175.480469 137.710938 171.945312 134.601562 C 171.339844 134.070312 170.269531 134.65625 170.289062 135.421875 C 170.4375 141.71875 171.726562 152.269531 178.886719 154.402344 C 179.257812 154.734375 179.683594 154.984375 180.179688 155.101562 C 180.710938 155.226562 181.367188 155.132812 181.65625 154.597656 C 183.300781 151.589844 182.214844 148.433594 180.695312 145.535156 " fill-opacity="1" fill-rule="nonzero"/></g></g></g><g clip-path="url(#44abd31ec5)"><g clip-path="url(#036464ce60)"><g clip-path="url(#69b8eeb355)"><path fill="#8fbf91" d="M 187.316406 150.066406 C 186.980469 151.460938 186.710938 152.878906 186.515625 154.328125 C 186.566406 152.929688 186.90625 151.433594 187.316406 150.066406 Z M 188.980469 159.011719 C 190.914062 155.460938 193.71875 150.226562 193.972656 149.554688 C 195.328125 145.996094 194.789062 141.242188 193.332031 137.769531 C 192.988281 136.949219 191.996094 137.078125 191.539062 137.632812 C 186.425781 143.824219 183.539062 151.671875 185.183594 159.765625 C 185.417969 160.910156 186.015625 162.300781 187.15625 162.308594 C 187.179688 162.308594 187.957031 160.898438 188.980469 159.011719 " fill-opacity="1" fill-rule="nonzero"/></g></g></g><g clip-path="url(#44fd1fed13)"><g clip-path="url(#3dddb90a6b)"><g clip-path="url(#f76344f862)"><path fill="#8fbf91" d="M 178.992188 178.332031 C 180.386719 178.09375 181.773438 177.789062 183.15625 177.40625 C 181.878906 177.90625 180.394531 178.175781 178.992188 178.332031 Z M 186.175781 174.832031 C 186.164062 174.863281 186.144531 174.890625 186.128906 174.917969 C 179.203125 171.03125 170.808594 171.632812 165.371094 177.566406 C 164.785156 178.207031 165.328125 179.074219 166.023438 179.28125 C 170.277344 180.550781 174.785156 180.960938 179.121094 180.132812 C 181.335938 179.707031 184.238281 179.144531 185.761719 177.398438 C 186.804688 177.328125 187.277344 176.183594 186.710938 175.398438 C 186.734375 175.273438 186.761719 175.152344 186.773438 175.019531 C 186.808594 174.675781 186.316406 174.488281 186.175781 174.832031 " fill-opacity="1" fill-rule="nonzero"/></g></g></g><g clip-path="url(#5326b055b7)"><g clip-path="url(#5c0fc675e2)"><g clip-path="url(#cf800c8375)"><path fill="#8fbf91" d="M 195.351562 178.878906 C 195.972656 173.425781 199.988281 169.425781 202.984375 165.199219 C 204.464844 163.109375 206.925781 159.621094 206.992188 156.550781 C 207.457031 154.886719 207.808594 153.175781 208.089844 151.496094 C 208.199219 150.839844 207.414062 150.160156 206.800781 150.339844 C 204.066406 151.136719 201.898438 152.585938 200.226562 154.457031 C 192.933594 160.117188 192.332031 169.757812 192.351562 178.648438 C 192.355469 180.625 195.128906 180.828125 195.351562 178.878906 " fill-opacity="1" fill-rule="nonzero"/></g></g></g><g clip-path="url(#0cf7b766e9)"><g clip-path="url(#74f12225a9)"><g clip-path="url(#719a2ae7b8)"><path fill="#8fbf91" d="M 183.78125 165.378906 C 184.277344 162.992188 180.695312 160.769531 178.929688 160.066406 C 178.378906 159.851562 177.820312 159.695312 177.253906 159.574219 C 176.40625 159.308594 175.4375 159.242188 174.421875 159.300781 C 172.988281 159.335938 171.566406 159.613281 170.203125 160.054688 C 168.664062 160.464844 167.25 160.9375 166.238281 161.210938 C 165.390625 161.4375 164.996094 162.671875 165.875 163.207031 C 168.980469 165.105469 172.34375 166.421875 175.921875 166.917969 C 177.78125 167.175781 183.21875 168.09375 183.78125 165.378906 " fill-opacity="1" fill-rule="nonzero"/></g></g></g><g fill="#ff8735" fill-opacity="1"><g transform="translate(8.66002, 225.347841)"><g><path d="M 28.6875 -38.25 L 22.046875 -38.25 L 26.203125 -51.359375 L 16.375 -51 L 12.484375 -38.25 L 6.015625 -38.25 C 5.898438 -38.25 5.769531 -38 5.625 -37.5 C 5.476562 -37 5.460938 -36.75 5.578125 -36.75 L 12.046875 -36.75 L 3.8125 -10.984375 C 2.6875 -7.316406 2.726562 -4.4375 3.9375 -2.34375 C 5.144531 -0.25 7.164062 0.796875 10 0.796875 C 12.25 0.796875 14.507812 0.0703125 16.78125 -1.375 C 19.050781 -2.820312 20.953125 -5.109375 22.484375 -8.234375 L 21.15625 -8.765625 C 19.863281 -6.398438 18.597656 -4.742188 17.359375 -3.796875 C 16.117188 -2.859375 14.816406 -2.390625 13.453125 -2.390625 C 12.628906 -2.390625 12.066406 -2.65625 11.765625 -3.1875 C 11.472656 -3.71875 11.445312 -4.394531 11.6875 -5.21875 L 21.609375 -36.75 L 28.25 -36.75 C 28.363281 -36.75 28.476562 -37 28.59375 -37.5 C 28.71875 -38 28.75 -38.25 28.6875 -38.25 Z M 28.6875 -38.25 "/></g></g></g><g fill="#ff8735" fill-opacity="1"><g transform="translate(34.776899, 225.347841)"><g><path d="M 44.453125 -38.609375 L 34.890625 -37.625 L 33.203125 -33.828125 C 32.910156 -35.359375 32.144531 -36.503906 30.90625 -37.265625 C 29.664062 -38.035156 28.273438 -38.421875 26.734375 -38.421875 C 23.316406 -38.421875 20.113281 -37.640625 17.125 -36.078125 C 14.144531 -34.515625 11.546875 -32.519531 9.328125 -30.09375 C 7.117188 -27.675781 5.378906 -24.992188 4.109375 -22.046875 C 2.847656 -19.097656 2.21875 -16.207031 2.21875 -13.375 C 2.21875 -11.601562 2.421875 -9.875 2.828125 -8.1875 C 3.242188 -6.507812 3.910156 -5.003906 4.828125 -3.671875 C 5.742188 -2.347656 6.9375 -1.269531 8.40625 -0.4375 C 9.882812 0.382812 11.6875 0.796875 13.8125 0.796875 C 18.769531 0.796875 22.785156 -2.359375 25.859375 -8.671875 C 25.023438 -5.960938 25.257812 -3.707031 26.5625 -1.90625 C 27.863281 -0.101562 29.8125 0.796875 32.40625 0.796875 C 33.46875 0.796875 34.570312 0.585938 35.71875 0.171875 C 36.875 -0.234375 38 -0.832031 39.09375 -1.625 C 40.1875 -2.425781 41.21875 -3.390625 42.1875 -4.515625 C 43.164062 -5.640625 44.007812 -6.878906 44.71875 -8.234375 L 43.390625 -8.765625 C 42.265625 -6.878906 41.035156 -5.359375 39.703125 -4.203125 C 38.378906 -3.054688 37.007812 -2.484375 35.59375 -2.484375 C 34.769531 -2.484375 34.222656 -2.757812 33.953125 -3.3125 C 33.691406 -3.875 33.648438 -4.484375 33.828125 -5.140625 Z M 32.40625 -31.34375 L 27.53125 -15.9375 C 25.582031 -11.09375 23.632812 -7.398438 21.6875 -4.859375 C 19.738281 -2.328125 17.644531 -1.0625 15.40625 -1.0625 C 14.101562 -1.0625 13.082031 -1.488281 12.34375 -2.34375 C 11.613281 -3.195312 11.25 -4.773438 11.25 -7.078125 C 11.25 -8.910156 11.5 -11.179688 12 -13.890625 C 12.5 -16.609375 13.21875 -19.335938 14.15625 -22.078125 C 15.101562 -24.828125 16.238281 -27.394531 17.5625 -29.78125 C 18.894531 -32.175781 20.359375 -33.992188 21.953125 -35.234375 C 23.015625 -36.003906 23.898438 -36.519531 24.609375 -36.78125 C 25.316406 -37.050781 26.023438 -37.1875 26.734375 -37.1875 C 28.453125 -37.1875 29.828125 -36.640625 30.859375 -35.546875 C 31.890625 -34.453125 32.40625 -33.050781 32.40625 -31.34375 Z M 32.40625 -31.34375 "/></g></g></g><g fill="#ff8735" fill-opacity="1"><g transform="translate(81.610222, 225.347841)"><g><path d="M 31.34375 -30.90625 C 31.34375 -32.019531 31.0625 -33.050781 30.5 -34 C 29.9375 -34.945312 29.195312 -35.742188 28.28125 -36.390625 C 27.375 -37.035156 26.300781 -37.550781 25.0625 -37.9375 C 23.820312 -38.320312 22.519531 -38.515625 21.15625 -38.515625 C 19.269531 -38.515625 17.515625 -38.160156 15.890625 -37.453125 C 14.265625 -36.742188 12.832031 -35.796875 11.59375 -34.609375 C 10.351562 -33.429688 9.378906 -32.101562 8.671875 -30.625 C 7.960938 -29.15625 7.609375 -27.679688 7.609375 -26.203125 C 7.609375 -24.671875 7.890625 -23.34375 8.453125 -22.21875 C 9.015625 -21.101562 9.707031 -20.085938 10.53125 -19.171875 C 11.363281 -18.253906 12.265625 -17.394531 13.234375 -16.59375 C 14.210938 -15.800781 15.113281 -14.960938 15.9375 -14.078125 C 16.757812 -13.191406 17.453125 -12.203125 18.015625 -11.109375 C 18.578125 -10.015625 18.859375 -8.734375 18.859375 -7.265625 C 18.859375 -5.316406 18.3125 -3.722656 17.21875 -2.484375 C 16.125 -1.242188 14.3125 -0.625 11.78125 -0.625 C 9.53125 -0.625 7.960938 -0.945312 7.078125 -1.59375 C 6.191406 -2.238281 5.75 -3.125 5.75 -4.25 C 5.75 -4.84375 5.878906 -5.285156 6.140625 -5.578125 C 6.410156 -5.867188 6.722656 -6.160156 7.078125 -6.453125 C 7.429688 -6.753906 7.738281 -7.140625 8 -7.609375 C 8.269531 -8.085938 8.40625 -8.828125 8.40625 -9.828125 C 8.40625 -10.648438 8.082031 -11.519531 7.4375 -12.4375 C 6.789062 -13.351562 5.757812 -13.8125 4.34375 -13.8125 C 2.976562 -13.8125 1.867188 -13.234375 1.015625 -12.078125 C 0.160156 -10.929688 -0.265625 -9.59375 -0.265625 -8.0625 C -0.265625 -6.875 0.0234375 -5.734375 0.609375 -4.640625 C 1.203125 -3.554688 2.03125 -2.613281 3.09375 -1.8125 C 4.15625 -1.019531 5.425781 -0.390625 6.90625 0.078125 C 8.382812 0.554688 10.007812 0.796875 11.78125 0.796875 C 14.195312 0.796875 16.332031 0.472656 18.1875 -0.171875 C 20.050781 -0.828125 21.628906 -1.695312 22.921875 -2.78125 C 24.222656 -3.875 25.195312 -5.113281 25.84375 -6.5 C 26.5 -7.894531 26.828125 -9.359375 26.828125 -10.890625 C 26.828125 -12.660156 26.53125 -14.207031 25.9375 -15.53125 C 25.351562 -16.863281 24.617188 -18.0625 23.734375 -19.125 C 22.847656 -20.1875 21.875 -21.1875 20.8125 -22.125 C 19.75 -23.070312 18.773438 -24.003906 17.890625 -24.921875 C 17.003906 -25.835938 16.265625 -26.796875 15.671875 -27.796875 C 15.078125 -28.804688 14.78125 -29.957031 14.78125 -31.25 C 14.78125 -33.082031 15.28125 -34.5 16.28125 -35.5 C 17.289062 -36.507812 18.800781 -37.015625 20.8125 -37.015625 C 23.644531 -37.015625 25.0625 -36.097656 25.0625 -34.265625 C 25.0625 -33.847656 24.972656 -33.476562 24.796875 -33.15625 C 24.617188 -32.832031 24.425781 -32.519531 24.21875 -32.21875 C 24.007812 -31.925781 23.816406 -31.585938 23.640625 -31.203125 C 23.460938 -30.828125 23.375 -30.375 23.375 -29.84375 C 23.375 -28.894531 23.664062 -28.082031 24.25 -27.40625 C 24.84375 -26.726562 25.820312 -26.390625 27.1875 -26.390625 C 28.425781 -26.390625 29.425781 -26.753906 30.1875 -27.484375 C 30.957031 -28.222656 31.34375 -29.363281 31.34375 -30.90625 Z M 31.34375 -30.90625 "/></g></g></g><g fill="#ff8735" fill-opacity="1"><g transform="translate(114.632578, 225.347841)"><g><path d="M 28.6875 -38.25 L 22.046875 -38.25 L 26.203125 -51.359375 L 16.375 -51 L 12.484375 -38.25 L 6.015625 -38.25 C 5.898438 -38.25 5.769531 -38 5.625 -37.5 C 5.476562 -37 5.460938 -36.75 5.578125 -36.75 L 12.046875 -36.75 L 3.8125 -10.984375 C 2.6875 -7.316406 2.726562 -4.4375 3.9375 -2.34375 C 5.144531 -0.25 7.164062 0.796875 10 0.796875 C 12.25 0.796875 14.507812 0.0703125 16.78125 -1.375 C 19.050781 -2.820312 20.953125 -5.109375 22.484375 -8.234375 L 21.15625 -8.765625 C 19.863281 -6.398438 18.597656 -4.742188 17.359375 -3.796875 C 16.117188 -2.859375 14.816406 -2.390625 13.453125 -2.390625 C 12.628906 -2.390625 12.066406 -2.65625 11.765625 -3.1875 C 11.472656 -3.71875 11.445312 -4.394531 11.6875 -5.21875 L 21.609375 -36.75 L 28.25 -36.75 C 28.363281 -36.75 28.476562 -37 28.59375 -37.5 C 28.71875 -38 28.75 -38.25 28.6875 -38.25 Z M 28.6875 -38.25 "/></g></g></g><g fill="#ff8735" fill-opacity="1"><g transform="translate(140.749457, 225.347841)"><g><path d="M 44.1875 -36.03125 C 44.1875 -36.738281 43.992188 -37.328125 43.609375 -37.796875 C 43.222656 -38.273438 42.53125 -38.515625 41.53125 -38.515625 C 38.75 -38.515625 36.015625 -36.285156 33.328125 -31.828125 C 30.648438 -27.367188 27.507812 -20.773438 23.90625 -12.046875 L 21.421875 -23.46875 C 20.421875 -28.070312 19.238281 -31.726562 17.875 -34.4375 C 16.519531 -37.15625 14.546875 -38.515625 11.953125 -38.515625 C 9.765625 -38.515625 7.785156 -37.757812 6.015625 -36.25 C 4.242188 -34.75 2.648438 -32.671875 1.234375 -30.015625 L 2.21875 -29.125 C 3.039062 -30.488281 3.789062 -31.460938 4.46875 -32.046875 C 5.144531 -32.640625 5.867188 -32.9375 6.640625 -32.9375 C 7.234375 -32.9375 7.820312 -32.773438 8.40625 -32.453125 C 9 -32.128906 9.578125 -31.476562 10.140625 -30.5 C 10.703125 -29.53125 11.257812 -28.113281 11.8125 -26.25 C 12.375 -24.394531 12.921875 -21.929688 13.453125 -18.859375 L 17.359375 3.546875 C 15.765625 7.203125 14.285156 10.445312 12.921875 13.28125 C 11.566406 16.113281 10.164062 18.503906 8.71875 20.453125 C 7.269531 22.398438 5.734375 23.875 4.109375 24.875 C 2.492188 25.882812 0.679688 26.390625 -1.328125 26.390625 C -2.273438 26.390625 -3.023438 26.148438 -3.578125 25.671875 C -4.140625 25.203125 -4.421875 24.4375 -4.421875 23.375 C -4.421875 22.601562 -4.097656 21.742188 -3.453125 20.796875 C -2.804688 19.859375 -2.484375 18.828125 -2.484375 17.703125 C -2.484375 16.703125 -2.804688 15.816406 -3.453125 15.046875 C -4.097656 14.285156 -5.160156 13.90625 -6.640625 13.90625 C -7.992188 13.90625 -9.144531 14.421875 -10.09375 15.453125 C -11.039062 16.484375 -11.515625 17.851562 -11.515625 19.5625 C -11.515625 20.800781 -11.25 21.921875 -10.71875 22.921875 C -10.1875 23.929688 -9.460938 24.789062 -8.546875 25.5 C -7.628906 26.207031 -6.578125 26.765625 -5.390625 27.171875 C -4.210938 27.585938 -2.976562 27.796875 -1.6875 27.796875 C 0.851562 27.796875 3.113281 27.160156 5.09375 25.890625 C 7.070312 24.628906 8.945312 22.742188 10.71875 20.234375 C 12.488281 17.722656 14.210938 14.59375 15.890625 10.84375 C 17.578125 7.09375 19.453125 2.738281 21.515625 -2.21875 C 23.929688 -8.175781 25.953125 -12.984375 27.578125 -16.640625 C 29.203125 -20.304688 30.691406 -23.210938 32.046875 -25.359375 C 33.410156 -27.515625 34.769531 -29.09375 36.125 -30.09375 C 37.476562 -31.101562 39.128906 -31.90625 41.078125 -32.5 C 41.910156 -32.851562 42.632812 -33.265625 43.25 -33.734375 C 43.875 -34.203125 44.1875 -34.96875 44.1875 -36.03125 Z M 44.1875 -36.03125 "/></g></g></g><g fill="#ff8735" fill-opacity="1"><g transform="translate(181.474081, 225.347841)"><g/></g></g><g fill="#ff8735" fill-opacity="1"><g transform="translate(199.180439, 225.347841)"><g><path d="M 41.265625 -25.5 C 41.265625 -27.507812 40.921875 -29.320312 40.234375 -30.9375 C 39.554688 -32.5625 38.640625 -33.9375 37.484375 -35.0625 C 36.335938 -36.1875 35.039062 -37.039062 33.59375 -37.625 C 32.15625 -38.21875 30.664062 -38.515625 29.125 -38.515625 C 26.882812 -38.515625 24.773438 -37.832031 22.796875 -36.46875 C 20.816406 -35.113281 19.238281 -33.226562 18.0625 -30.8125 L 28.78125 -65 C 28.71875 -65.050781 28.6875 -65.109375 28.6875 -65.171875 C 28.6875 -65.234375 28.628906 -65.265625 28.515625 -65.265625 L 13.71875 -65 C 13.601562 -65 13.457031 -64.757812 13.28125 -64.28125 C 13.101562 -63.8125 13.070312 -63.578125 13.1875 -63.578125 L 18.0625 -63.578125 C 18.414062 -63.578125 18.5625 -63.457031 18.5 -63.21875 L 3.8125 -16.5625 C 2.039062 -10.832031 1.976562 -6.503906 3.625 -3.578125 C 5.28125 -0.660156 9.265625 0.796875 15.578125 0.796875 C 18.648438 0.796875 21.71875 0.0703125 24.78125 -1.375 C 27.851562 -2.820312 30.613281 -4.753906 33.0625 -7.171875 C 35.519531 -9.585938 37.5 -12.375 39 -15.53125 C 40.507812 -18.695312 41.265625 -22.019531 41.265625 -25.5 Z M 32.5 -30.015625 C 32.5 -28.535156 32.242188 -26.660156 31.734375 -24.390625 C 31.234375 -22.117188 30.597656 -19.785156 29.828125 -17.390625 C 29.066406 -15.003906 28.257812 -12.773438 27.40625 -10.703125 C 26.550781 -8.640625 25.738281 -7.078125 24.96875 -6.015625 C 23.4375 -3.890625 21.945312 -2.441406 20.5 -1.671875 C 19.050781 -0.910156 17.410156 -0.53125 15.578125 -0.53125 C 13.578125 -0.53125 12.117188 -1.207031 11.203125 -2.5625 C 10.285156 -3.925781 10.179688 -5.90625 10.890625 -8.5 L 15.84375 -23.640625 C 17.5625 -28.242188 19.40625 -31.546875 21.375 -33.546875 C 23.351562 -35.554688 25.46875 -36.5625 27.71875 -36.5625 C 29.601562 -36.5625 30.867188 -36.070312 31.515625 -35.09375 C 32.171875 -34.125 32.5 -32.429688 32.5 -30.015625 Z M 32.5 -30.015625 "/></g></g></g><g fill="#ff8735" fill-opacity="1"><g transform="translate(243.800455, 225.347841)"><g><path d="M 26.125 -54.90625 C 26.125 -56.4375 25.632812 -57.71875 24.65625 -58.75 C 23.6875 -59.78125 22.492188 -60.296875 21.078125 -60.296875 C 19.535156 -60.296875 18.265625 -59.78125 17.265625 -58.75 C 16.265625 -57.71875 15.765625 -56.4375 15.765625 -54.90625 C 15.765625 -53.539062 16.265625 -52.359375 17.265625 -51.359375 C 18.265625 -50.359375 19.535156 -49.859375 21.078125 -49.859375 C 22.492188 -49.859375 23.6875 -50.359375 24.65625 -51.359375 C 25.632812 -52.359375 26.125 -53.539062 26.125 -54.90625 Z M 24.078125 -8.234375 L 22.84375 -8.765625 C 21.539062 -6.398438 20.269531 -4.742188 19.03125 -3.796875 C 17.789062 -2.859375 16.492188 -2.390625 15.140625 -2.390625 C 14.140625 -2.390625 13.445312 -2.710938 13.0625 -3.359375 C 12.675781 -4.015625 12.484375 -4.84375 12.484375 -5.84375 C 12.484375 -7.257812 12.941406 -8.984375 13.859375 -11.015625 C 14.773438 -13.054688 15.765625 -15.242188 16.828125 -17.578125 C 17.890625 -19.910156 18.875 -22.300781 19.78125 -24.75 C 20.695312 -27.195312 21.15625 -29.515625 21.15625 -31.703125 C 21.15625 -33.523438 20.578125 -35.113281 19.421875 -36.46875 C 18.273438 -37.832031 16.550781 -38.515625 14.25 -38.515625 C 11.945312 -38.515625 9.789062 -37.820312 7.78125 -36.4375 C 5.78125 -35.050781 4.191406 -33.085938 3.015625 -30.546875 L 4.34375 -30.015625 C 5.164062 -31.722656 6.109375 -33.050781 7.171875 -34 C 8.234375 -34.945312 9.148438 -35.421875 9.921875 -35.421875 C 10.742188 -35.421875 11.347656 -35.210938 11.734375 -34.796875 C 12.117188 -34.378906 12.3125 -33.613281 12.3125 -32.5 C 12.3125 -30.726562 11.867188 -28.71875 10.984375 -26.46875 C 10.097656 -24.226562 9.109375 -21.941406 8.015625 -19.609375 C 6.921875 -17.273438 5.929688 -14.941406 5.046875 -12.609375 C 4.160156 -10.285156 3.71875 -8.148438 3.71875 -6.203125 C 3.71875 -4.191406 4.363281 -2.519531 5.65625 -1.1875 C 6.957031 0.132812 8.847656 0.796875 11.328125 0.796875 C 12.515625 0.796875 13.710938 0.585938 14.921875 0.171875 C 16.128906 -0.234375 17.289062 -0.820312 18.40625 -1.59375 C 19.53125 -2.363281 20.578125 -3.304688 21.546875 -4.421875 C 22.523438 -5.546875 23.367188 -6.816406 24.078125 -8.234375 Z M 24.078125 -8.234375 "/></g></g></g><g fill="#ff8735" fill-opacity="1"><g transform="translate(269.563207, 225.347841)"><g><path d="M 28.6875 -38.25 L 22.046875 -38.25 L 26.203125 -51.359375 L 16.375 -51 L 12.484375 -38.25 L 6.015625 -38.25 C 5.898438 -38.25 5.769531 -38 5.625 -37.5 C 5.476562 -37 5.460938 -36.75 5.578125 -36.75 L 12.046875 -36.75 L 3.8125 -10.984375 C 2.6875 -7.316406 2.726562 -4.4375 3.9375 -2.34375 C 5.144531 -0.25 7.164062 0.796875 10 0.796875 C 12.25 0.796875 14.507812 0.0703125 16.78125 -1.375 C 19.050781 -2.820312 20.953125 -5.109375 22.484375 -8.234375 L 21.15625 -8.765625 C 19.863281 -6.398438 18.597656 -4.742188 17.359375 -3.796875 C 16.117188 -2.859375 14.816406 -2.390625 13.453125 -2.390625 C 12.628906 -2.390625 12.066406 -2.65625 11.765625 -3.1875 C 11.472656 -3.71875 11.445312 -4.394531 11.6875 -5.21875 L 21.609375 -36.75 L 28.25 -36.75 C 28.363281 -36.75 28.476562 -37 28.59375 -37.5 C 28.71875 -38 28.75 -38.25 28.6875 -38.25 Z M 28.6875 -38.25 "/></g></g></g><g fill="#ff8735" fill-opacity="1"><g transform="translate(295.680086, 225.347841)"><g><path d="M 35.953125 -30.375 C 35.953125 -31.4375 35.710938 -32.453125 35.234375 -33.421875 C 34.765625 -34.398438 34.039062 -35.253906 33.0625 -35.984375 C 32.09375 -36.722656 30.898438 -37.328125 29.484375 -37.796875 C 28.066406 -38.273438 26.441406 -38.515625 24.609375 -38.515625 C 21.660156 -38.515625 18.84375 -37.832031 16.15625 -36.46875 C 13.46875 -35.113281 11.09375 -33.300781 9.03125 -31.03125 C 6.96875 -28.757812 5.316406 -26.144531 4.078125 -23.1875 C 2.835938 -20.238281 2.21875 -17.171875 2.21875 -13.984375 C 2.21875 -11.804688 2.554688 -9.800781 3.234375 -7.96875 C 3.910156 -6.132812 4.867188 -4.566406 6.109375 -3.265625 C 7.347656 -1.972656 8.804688 -0.972656 10.484375 -0.265625 C 12.171875 0.441406 14.019531 0.796875 16.03125 0.796875 C 19.039062 0.796875 21.695312 0.160156 24 -1.109375 C 26.300781 -2.378906 28.484375 -4.253906 30.546875 -6.734375 L 29.75 -7.703125 C 28.800781 -6.703125 27.851562 -5.757812 26.90625 -4.875 C 25.96875 -3.988281 24.96875 -3.21875 23.90625 -2.5625 C 22.84375 -1.914062 21.675781 -1.414062 20.40625 -1.0625 C 19.132812 -0.707031 17.703125 -0.53125 16.109375 -0.53125 C 14.046875 -0.53125 12.628906 -1.132812 11.859375 -2.34375 C 11.097656 -3.550781 10.71875 -5.25 10.71875 -7.4375 C 10.71875 -8.851562 10.921875 -10.59375 11.328125 -12.65625 C 11.742188 -14.726562 12.273438 -16.796875 12.921875 -18.859375 L 15.3125 -18.859375 C 18.207031 -18.859375 20.910156 -19.125 23.421875 -19.65625 C 25.929688 -20.1875 28.113281 -20.953125 29.96875 -21.953125 C 31.832031 -22.960938 33.296875 -24.175781 34.359375 -25.59375 C 35.421875 -27.007812 35.953125 -28.601562 35.953125 -30.375 Z M 27.890625 -32.3125 C 27.890625 -30.84375 27.726562 -29.398438 27.40625 -27.984375 C 27.082031 -26.566406 26.445312 -25.28125 25.5 -24.125 C 24.550781 -22.976562 23.222656 -22.050781 21.515625 -21.34375 C 19.804688 -20.632812 17.59375 -20.28125 14.875 -20.28125 L 13.1875 -20.28125 C 13.84375 -22.582031 14.492188 -24.75 15.140625 -26.78125 C 15.785156 -28.820312 16.535156 -30.59375 17.390625 -32.09375 C 18.253906 -33.601562 19.226562 -34.800781 20.3125 -35.6875 C 21.40625 -36.570312 22.75 -37.015625 24.34375 -37.015625 C 25.53125 -37.015625 26.414062 -36.671875 27 -35.984375 C 27.59375 -35.304688 27.890625 -34.082031 27.890625 -32.3125 Z M 27.890625 -32.3125 "/></g></g></g><g fill="#ff8735" fill-opacity="1"><g transform="translate(333.306086, 225.347841)"><g><path d="M 31.34375 -30.90625 C 31.34375 -32.019531 31.0625 -33.050781 30.5 -34 C 29.9375 -34.945312 29.195312 -35.742188 28.28125 -36.390625 C 27.375 -37.035156 26.300781 -37.550781 25.0625 -37.9375 C 23.820312 -38.320312 22.519531 -38.515625 21.15625 -38.515625 C 19.269531 -38.515625 17.515625 -38.160156 15.890625 -37.453125 C 14.265625 -36.742188 12.832031 -35.796875 11.59375 -34.609375 C 10.351562 -33.429688 9.378906 -32.101562 8.671875 -30.625 C 7.960938 -29.15625 7.609375 -27.679688 7.609375 -26.203125 C 7.609375 -24.671875 7.890625 -23.34375 8.453125 -22.21875 C 9.015625 -21.101562 9.707031 -20.085938 10.53125 -19.171875 C 11.363281 -18.253906 12.265625 -17.394531 13.234375 -16.59375 C 14.210938 -15.800781 15.113281 -14.960938 15.9375 -14.078125 C 16.757812 -13.191406 17.453125 -12.203125 18.015625 -11.109375 C 18.578125 -10.015625 18.859375 -8.734375 18.859375 -7.265625 C 18.859375 -5.316406 18.3125 -3.722656 17.21875 -2.484375 C 16.125 -1.242188 14.3125 -0.625 11.78125 -0.625 C 9.53125 -0.625 7.960938 -0.945312 7.078125 -1.59375 C 6.191406 -2.238281 5.75 -3.125 5.75 -4.25 C 5.75 -4.84375 5.878906 -5.285156 6.140625 -5.578125 C 6.410156 -5.867188 6.722656 -6.160156 7.078125 -6.453125 C 7.429688 -6.753906 7.738281 -7.140625 8 -7.609375 C 8.269531 -8.085938 8.40625 -8.828125 8.40625 -9.828125 C 8.40625 -10.648438 8.082031 -11.519531 7.4375 -12.4375 C 6.789062 -13.351562 5.757812 -13.8125 4.34375 -13.8125 C 2.976562 -13.8125 1.867188 -13.234375 1.015625 -12.078125 C 0.160156 -10.929688 -0.265625 -9.59375 -0.265625 -8.0625 C -0.265625 -6.875 0.0234375 -5.734375 0.609375 -4.640625 C 1.203125 -3.554688 2.03125 -2.613281 3.09375 -1.8125 C 4.15625 -1.019531 5.425781 -0.390625 6.90625 0.078125 C 8.382812 0.554688 10.007812 0.796875 11.78125 0.796875 C 14.195312 0.796875 16.332031 0.472656 18.1875 -0.171875 C 20.050781 -0.828125 21.628906 -1.695312 22.921875 -2.78125 C 24.222656 -3.875 25.195312 -5.113281 25.84375 -6.5 C 26.5 -7.894531 26.828125 -9.359375 26.828125 -10.890625 C 26.828125 -12.660156 26.53125 -14.207031 25.9375 -15.53125 C 25.351562 -16.863281 24.617188 -18.0625 23.734375 -19.125 C 22.847656 -20.1875 21.875 -21.1875 20.8125 -22.125 C 19.75 -23.070312 18.773438 -24.003906 17.890625 -24.921875 C 17.003906 -25.835938 16.265625 -26.796875 15.671875 -27.796875 C 15.078125 -28.804688 14.78125 -29.957031 14.78125 -31.25 C 14.78125 -33.082031 15.28125 -34.5 16.28125 -35.5 C 17.289062 -36.507812 18.800781 -37.015625 20.8125 -37.015625 C 23.644531 -37.015625 25.0625 -36.097656 25.0625 -34.265625 C 25.0625 -33.847656 24.972656 -33.476562 24.796875 -33.15625 C 24.617188 -32.832031 24.425781 -32.519531 24.21875 -32.21875 C 24.007812 -31.925781 23.816406 -31.585938 23.640625 -31.203125 C 23.460938 -30.828125 23.375 -30.375 23.375 -29.84375 C 23.375 -28.894531 23.664062 -28.082031 24.25 -27.40625 C 24.84375 -26.726562 25.820312 -26.390625 27.1875 -26.390625 C 28.425781 -26.390625 29.425781 -26.753906 30.1875 -27.484375 C 30.957031 -28.222656 31.34375 -29.363281 31.34375 -30.90625 Z M 31.34375 -30.90625 "/></g></g></g></svg>